<?xml version="1.0" standalone="no"?>
<!DOCTYPE svg PUBLIC "-//W3C//DTD SVG 20010904//EN"
 "http://www.w3.org/TR/2001/REC-SVG-20010904/DTD/svg10.dtd">
<svg version="1.0" xmlns="http://www.w3.org/2000/svg"
 width="49.000000pt" height="49.000000pt" viewBox="0 0 49.000000 49.000000"
 preserveAspectRatio="xMidYMid meet">

<g transform="translate(0.000000,49.000000) scale(0.100000,-0.100000)"
fill="#000000" stroke="none">
<path d="M165 471 c-51 -23 -101 -79 -114 -128 -6 -21 -11 -99 -11 -174 0
-119 2 -138 18 -152 16 -14 44 -17 189 -17 152 0 172 2 186 18 26 28 24 291
-2 347 -49 105 -166 152 -266 106z m160 -21 c45 -22 75 -57 93 -109 16 -46 16
-293 0 -309 -17 -17 -329 -17 -346 0 -16 16 -16 262 -1 309 14 42 64 97 104
115 43 19 103 17 150 -6z"/>
<path d="M177 409 c-39 -20 -76 -81 -77 -123 0 -44 40 -104 84 -125 53 -26 69
-26 124 0 105 51 105 196 1 250 -48 24 -84 24 -132 -2z m140 -24 c79 -52 58
-189 -34 -214 -49 -14 -89 -4 -123 31 -104 103 34 264 157 183z"/>
<path d="M242 324 c-1 -36 3 -55 13 -64 22 -18 32 -4 12 17 -8 10 -17 36 -20
58 -3 37 -4 36 -5 -11z"/>
<path d="M105 70 c3 -5 17 -10 31 -10 13 0 24 5 24 10 0 6 -14 10 -31 10 -17
0 -28 -4 -24 -10z"/>
<path d="M220 70 c0 -5 11 -10 25 -10 14 0 25 5 25 10 0 6 -11 10 -25 10 -14
0 -25 -4 -25 -10z"/>
<path d="M330 70 c0 -5 11 -10 24 -10 14 0 28 5 31 10 4 6 -7 10 -24 10 -17 0
-31 -4 -31 -10z"/>
</g>
</svg>
